<svg xmlns="http://www.w3.org/2000/svg" xmlns:xlink="http://www.w3.org/1999/xlink" width="1000" zoomAndPan="magnify" viewBox="0 0 750 749.999995" height="1000" preserveAspectRatio="xMidYMid meet" version="1.0"><path fill="#000000" d="M 377.496094 267.691406 C 375.746094 268.761719 373.210938 271.738281 371.566406 274.65625 C 370.847656 275.925781 369.992188 277.128906 369.660156 277.328125 C 368.988281 277.730469 365.90625 282.207031 364.746094 284.460938 C 364.332031 285.269531 363.359375 286.761719 362.585938 287.777344 C 361.8125 288.792969 360.792969 290.515625 360.320312 291.609375 C 359.46875 293.5625 356.671875 298.398438 352.136719 305.738281 C 350.859375 307.804688 349.214844 310.6875 348.480469 312.144531 C 347.746094 313.601562 346.378906 315.871094 345.4375 317.1875 C 344.5 318.5 343.730469 319.84375 343.730469 320.167969 C 343.730469 320.976562 339.757812 328.617188 338.359375 330.496094 C 337.167969 332.097656 333.570312 339.113281 333.570312 339.835938 C 333.570312 340.066406 333.054688 340.933594 332.421875 341.757812 C 331.789062 342.585938 330.726562 344.613281 330.054688 346.257812 C 329.382812 347.90625 328.046875 350.472656 327.082031 351.964844 C 326.117188 353.453125 324.96875 355.839844 324.523438 357.265625 C 324.082031 358.6875 323.355469 360.378906 322.90625 361.023438 C 321.859375 362.519531 319.523438 367.671875 318.757812 370.167969 C 318.433594 371.222656 317.1875 373.808594 315.984375 375.910156 C 314.78125 378.011719 313.546875 380.527344 313.234375 381.5 C 312.925781 382.472656 312.007812 384.527344 311.195312 386.0625 C 310.382812 387.601562 309.714844 389.148438 309.714844 389.503906 C 309.714844 389.855469 309.195312 391.167969 308.5625 392.417969 C 307.125 395.257812 304.226562 402.214844 302.890625 406.035156 C 302.332031 407.625 299.769531 413.074219 297.191406 418.144531 C 294.617188 423.214844 292.285156 428.035156 292.015625 428.851562 C 291.746094 429.671875 290.550781 432.109375 289.355469 434.273438 C 288.164062 436.4375 287.1875 438.460938 287.1875 438.769531 C 287.1875 439.078125 286.464844 440.929688 285.585938 442.882812 C 283.382812 447.769531 283.390625 447.75 281.914062 451.820312 C 280.753906 455.015625 279.136719 457.703125 278.371094 457.703125 C 277.527344 457.703125 280.078125 445.699219 281.894531 441.136719 C 282.183594 440.40625 282.886719 437.625 283.453125 434.953125 C 284.023438 432.277344 285.082031 427.707031 285.8125 424.792969 C 286.542969 421.875 287.355469 418.261719 287.621094 416.757812 C 287.882812 415.25 288.464844 412.953125 288.914062 411.652344 C 289.363281 410.347656 289.867188 408.398438 290.039062 407.316406 C 290.207031 406.238281 290.710938 404.160156 291.160156 402.703125 C 292.757812 397.472656 293.792969 393.375 294.277344 390.335938 C 294.550781 388.632812 295.140625 385.75 295.59375 383.929688 C 296.046875 382.105469 296.800781 378.628906 297.269531 376.199219 C 297.742188 373.769531 298.539062 370.296875 299.042969 368.484375 C 299.542969 366.671875 300.089844 364.089844 300.25 362.742188 C 300.414062 361.398438 301.535156 356.617188 302.746094 352.125 C 303.957031 347.628906 305.246094 342.460938 305.613281 340.636719 C 305.980469 338.816406 306.667969 336.132812 307.144531 334.675781 C 307.617188 333.214844 308.292969 330.929688 308.640625 329.59375 C 308.988281 328.257812 309.558594 326.171875 309.910156 324.957031 C 310.257812 323.742188 310.785156 321.453125 311.074219 319.875 C 311.425781 317.972656 311.941406 316.675781 312.605469 316.03125 C 313.316406 315.339844 313.75 314.140625 314.125 311.835938 C 314.410156 310.0625 315.503906 304.734375 316.558594 299.996094 C 318.59375 290.851562 319.035156 288.285156 319.179688 284.769531 C 319.257812 282.816406 319.109375 282.414062 317.804688 281.109375 C 317 280.304688 316.339844 279.363281 316.339844 279.019531 C 316.339844 278.390625 313.839844 277.472656 312.105469 277.46875 C 311.203125 277.46875 304.109375 280.882812 300.707031 282.957031 C 299.761719 283.535156 297.96875 285.070312 296.71875 286.367188 C 295.46875 287.667969 292.09375 290.917969 289.222656 293.589844 C 286.351562 296.265625 283.574219 298.941406 283.054688 299.542969 C 282.53125 300.144531 280.902344 301.933594 279.425781 303.519531 C 277.953125 305.105469 275.640625 307.894531 274.28125 309.714844 C 272.925781 311.539062 270.878906 314.023438 269.734375 315.238281 C 268.589844 316.453125 266.804688 318.578125 265.765625 319.960938 C 264.730469 321.34375 262.160156 324.339844 260.054688 326.621094 C 257.949219 328.898438 255.707031 331.546875 255.070312 332.5 C 254.433594 333.453125 253.199219 335.027344 252.324219 336 C 251.453125 336.972656 249.449219 339.527344 247.867188 341.683594 C 246.289062 343.835938 244.03125 346.71875 242.84375 348.085938 C 241.660156 349.457031 240.46875 351.085938 240.195312 351.710938 C 239.921875 352.332031 238.246094 354.441406 236.472656 356.394531 C 234.695312 358.34375 232.472656 361.015625 231.53125 362.328125 C 230.585938 363.640625 229.234375 365.410156 228.527344 366.257812 C 227.816406 367.109375 226.679688 368.699219 226.003906 369.792969 C 225.324219 370.886719 223.835938 372.875 222.695312 374.210938 C 221.554688 375.546875 220.25 377.238281 219.796875 377.964844 C 219.34375 378.695312 218.320312 380.035156 217.519531 380.949219 C 216.71875 381.859375 216.0625 382.796875 216.0625 383.03125 C 216.0625 383.265625 215.429688 384.179688 214.652344 385.066406 C 213.875 385.953125 212.433594 387.824219 211.449219 389.230469 C 210.464844 390.632812 207.503906 394.257812 204.867188 397.285156 C 202.234375 400.3125 199.648438 403.503906 199.125 404.378906 C 195.996094 409.589844 193.226562 413.25 187.300781 420.007812 C 183.359375 424.507812 182.050781 426.523438 182.050781 428.097656 C 182.050781 428.652344 180.808594 430.246094 178.925781 432.109375 C 175.285156 435.71875 174.628906 437.488281 176.34375 439.085938 C 176.902344 439.605469 177.828125 440.03125 178.40625 440.03125 C 179.941406 440.03125 184.1875 437.902344 184.9375 436.753906 C 185.296875 436.207031 186.53125 435.3125 187.683594 434.757812 C 189.746094 433.773438 192.957031 430.230469 196.511719 425.011719 C 197.257812 423.917969 198.605469 422.328125 199.503906 421.476562 C 201.628906 419.472656 210.320312 407.933594 210.320312 407.121094 C 210.320312 406.777344 211.464844 405.105469 212.863281 403.40625 C 214.257812 401.707031 216.507812 398.964844 217.863281 397.3125 C 220.652344 393.910156 227.109375 384.246094 227.109375 383.476562 C 227.109375 383.199219 228.265625 381.742188 229.679688 380.246094 C 231.09375 378.75 233.574219 375.636719 235.1875 373.328125 C 238.667969 368.347656 239.8125 366.867188 244.816406 360.867188 C 246.902344 358.367188 249.171875 355.425781 249.855469 354.332031 C 250.539062 353.238281 252.140625 351.152344 253.414062 349.695312 C 254.683594 348.234375 256.433594 345.835938 257.296875 344.359375 C 258.160156 342.882812 259.527344 341.09375 260.339844 340.382812 C 261.148438 339.671875 262.492188 338.195312 263.324219 337.105469 C 264.15625 336.011719 266.15625 333.703125 267.773438 331.980469 C 269.390625 330.253906 271.066406 328.265625 271.496094 327.5625 C 271.929688 326.855469 273.242188 325.484375 274.414062 324.515625 C 275.582031 323.542969 277.128906 321.828125 277.847656 320.707031 C 278.566406 319.582031 280.234375 317.59375 281.550781 316.289062 C 282.871094 314.980469 285.328125 312.40625 287.015625 310.570312 C 288.699219 308.730469 293.585938 303.808594 297.875 299.636719 C 303.703125 293.957031 305.945312 292.046875 306.761719 292.046875 C 308.4375 292.046875 308.507812 293.15625 307.027344 296.324219 C 306.277344 297.921875 305.460938 300.34375 305.207031 301.710938 C 304.953125 303.074219 304.28125 305.1875 303.71875 306.402344 C 303.152344 307.617188 302.5625 309.207031 302.40625 309.9375 C 302.25 310.664062 301.761719 312.253906 301.320312 313.46875 C 300.195312 316.554688 298.378906 323.171875 297.195312 328.488281 C 295.511719 336.042969 295.136719 337.964844 295.136719 339.0625 C 295.136719 339.707031 294.738281 341.011719 294.253906 341.964844 C 293.769531 342.914062 293.367188 344.347656 293.367188 345.148438 C 293.363281 347.097656 292 352.625 290.085938 358.4375 C 289.222656 361.058594 288.398438 364.039062 288.253906 365.0625 C 288.109375 366.085938 287.722656 367.816406 287.390625 368.910156 C 287.058594 370.003906 286.5625 372.089844 286.28125 373.546875 C 286.003906 375.003906 285.585938 376.992188 285.351562 377.964844 C 284.640625 380.929688 284.109375 383.542969 283.46875 387.242188 C 282.480469 392.925781 281.933594 395.382812 281.453125 396.28125 C 281.203125 396.746094 281 397.597656 281 398.179688 C 281 398.761719 280.511719 400.683594 279.910156 402.449219 C 279.308594 404.214844 278.601562 406.882812 278.339844 408.378906 C 278.078125 409.875 277.570312 411.890625 277.210938 412.863281 C 276.851562 413.835938 276.179688 416.417969 275.71875 418.605469 C 274.570312 424.074219 271.820312 435.394531 271.042969 437.882812 C 270.6875 439.007812 270.398438 440.359375 270.398438 440.886719 C 270.398438 441.410156 270.125 442.378906 269.792969 443.035156 C 269.460938 443.691406 268.851562 446.316406 268.441406 448.867188 C 268.03125 451.417969 267.390625 454.863281 267.019531 456.523438 C 266.285156 459.820312 266.484375 465.492188 267.53125 471.070312 C 268.191406 474.59375 268.542969 475.09375 271.011719 476.039062 C 272.769531 476.710938 273.082031 476.699219 276.167969 475.882812 C 281.085938 474.578125 280.683594 474.894531 284.097656 469.628906 C 284.808594 468.535156 286.382812 466.148438 287.605469 464.328125 C 288.824219 462.503906 289.824219 460.695312 289.828125 460.304688 C 289.832031 459.910156 290.347656 458.839844 290.972656 457.917969 C 291.597656 456.996094 292.773438 454.40625 293.585938 452.164062 C 294.398438 449.917969 295.410156 447.414062 295.832031 446.597656 C 296.257812 445.78125 297.144531 443.519531 297.808594 441.578125 C 300.390625 434.019531 303.121094 427.609375 306.546875 421.035156 C 308.511719 417.269531 310.40625 413.371094 310.757812 412.371094 C 311.113281 411.375 312.285156 408.691406 313.367188 406.410156 C 314.449219 404.128906 315.6875 401.167969 316.121094 399.832031 C 316.847656 397.59375 318.5625 393.785156 322.988281 384.59375 C 323.921875 382.648438 324.828125 380.460938 325 379.734375 C 325.171875 379.003906 327.070312 374.761719 329.21875 370.308594 C 331.371094 365.855469 333.128906 361.976562 333.128906 361.695312 C 333.132812 361.410156 333.460938 360.582031 333.859375 359.855469 C 334.257812 359.125 335.714844 356.34375 337.097656 353.667969 C 338.480469 350.996094 340.96875 346.324219 342.628906 343.289062 C 344.289062 340.25 346.382812 336.375 347.28125 334.675781 C 348.484375 332.410156 349.703125 330.152344 350.933594 327.90625 C 352.046875 325.886719 353.292969 323.355469 353.699219 322.285156 C 354.109375 321.210938 355.3125 318.988281 356.375 317.34375 C 357.433594 315.699219 358.304688 314.167969 358.304688 313.9375 C 358.308594 313.488281 360.75 309.261719 364.0625 303.972656 C 365.207031 302.148438 366.59375 299.410156 367.148438 297.882812 C 367.820312 296.027344 368.585938 294.800781 369.441406 294.191406 C 370.148438 293.6875 370.8125 293.359375 370.914062 293.460938 C 371.019531 293.566406 370.898438 295.027344 370.648438 296.714844 C 370.398438 298.398438 370.011719 301.566406 369.792969 303.75 C 369.574219 305.9375 369.1875 308.421875 368.933594 309.269531 C 368.675781 310.117188 368.460938 312.304688 368.453125 314.128906 C 368.441406 316.167969 368.191406 317.871094 367.804688 318.550781 C 367.457031 319.15625 367.167969 320.191406 367.15625 320.847656 C 367.148438 321.503906 366.953125 322.5 366.71875 323.058594 C 366.488281 323.617188 366.082031 327.054688 365.824219 330.699219 C 365.316406 337.765625 365.054688 339.660156 363.617188 346.601562 C 363.113281 349.03125 362.527344 352.609375 362.316406 354.554688 C 362.105469 356.496094 361.714844 358.882812 361.453125 359.855469 C 361.191406 360.824219 360.972656 362.667969 360.96875 363.949219 C 360.964844 365.230469 360.480469 368.3125 359.894531 370.796875 C 359.3125 373.28125 358.605469 377.402344 358.328125 379.953125 C 357.53125 387.261719 357.097656 390.214844 356.578125 391.878906 C 356.316406 392.726562 356.097656 394.355469 356.097656 395.492188 C 356.097656 396.632812 355.882812 398.125 355.621094 398.808594 C 355.15625 400.019531 354.914062 401.542969 353.878906 409.773438 C 353.601562 411.957031 353.207031 414.441406 353 415.292969 C 352.0625 419.113281 350.53125 442.964844 350.941406 447.339844 C 351.089844 448.964844 351.394531 450.519531 351.609375 450.792969 C 351.828125 451.070312 352.460938 452.6875 353.015625 454.386719 C 354.152344 457.878906 354.917969 459.070312 358.136719 462.359375 C 359.996094 464.261719 360.816406 464.761719 362.773438 465.191406 C 367.421875 466.214844 369.4375 466.222656 374.175781 465.242188 C 381.339844 463.753906 384.230469 461.648438 396.109375 449.253906 C 397.828125 447.460938 399.792969 445.148438 400.476562 444.117188 C 401.160156 443.085938 401.871094 442.238281 402.0625 442.238281 C 402.253906 442.238281 403.492188 440.695312 404.8125 438.808594 C 406.136719 436.921875 408.707031 433.789062 410.527344 431.851562 C 414.167969 427.976562 414.683594 427.132812 416.210938 422.582031 C 417.0625 420.03125 417.238281 418.613281 417.214844 414.484375 C 417.179688 408.269531 416.855469 407.785156 412.492188 407.457031 L 409.609375 407.238281 L 407.613281 409.167969 C 406.265625 410.472656 404.695312 412.886719 402.765625 416.617188 C 401.195312 419.65625 398.902344 423.8125 397.664062 425.855469 C 396.425781 427.898438 395.414062 429.761719 395.414062 429.992188 C 395.414062 431.652344 385.832031 443.097656 381.277344 446.875 C 380.183594 447.78125 379.222656 448.703125 379.140625 448.925781 C 378.746094 449.984375 373.695312 452.820312 371 453.496094 C 366.878906 454.527344 366.339844 454.363281 364.621094 451.515625 C 362.171875 447.464844 361.839844 445.660156 361.871094 436.75 C 361.90625 428.296875 362.277344 423.488281 363.335938 417.722656 C 364.953125 408.945312 365.414062 406.332031 366.253906 401.15625 C 366.828125 397.621094 367.410156 394.089844 368 390.554688 C 369.664062 380.605469 370.351562 376.160156 370.660156 373.289062 C 370.832031 371.691406 371.089844 370.199219 371.230469 369.972656 C 371.371094 369.746094 371.703125 368.070312 371.96875 366.253906 C 372.234375 364.433594 372.757812 361.058594 373.132812 358.75 C 373.503906 356.441406 373.988281 353.160156 374.203125 351.460938 C 374.421875 349.761719 374.804688 347.175781 375.054688 345.71875 C 376.515625 337.144531 376.914062 334.601562 377.523438 329.816406 C 377.894531 326.898438 378.195312 323.695312 378.191406 322.691406 C 378.1875 321.691406 378.484375 320.023438 378.847656 318.992188 C 379.214844 317.960938 379.511719 316.457031 379.511719 315.652344 C 379.511719 314.847656 379.695312 313.707031 379.921875 313.113281 C 380.144531 312.519531 380.652344 309.277344 381.050781 305.90625 C 381.445312 302.535156 382.136719 298.1875 382.589844 296.242188 C 383.574219 292.03125 384.59375 283.105469 384.210938 282.105469 C 384.0625 281.714844 384.210938 280.960938 384.546875 280.425781 C 384.878906 279.890625 385.285156 277.914062 385.445312 276.027344 C 385.683594 273.171875 385.589844 272.277344 384.882812 270.671875 C 383.941406 268.542969 383.582031 268.226562 381.558594 267.742188 C 380.796875 267.558594 379.875 267.285156 379.511719 267.136719 C 379.148438 266.988281 378.242188 267.234375 377.496094 267.691406 M 513.425781 272.617188 C 512.363281 273.097656 511.21875 273.492188 510.875 273.492188 C 509.925781 273.492188 498.320312 279.539062 497.039062 280.703125 C 496.421875 281.265625 494.605469 282.355469 493.007812 283.121094 C 491.410156 283.886719 488.726562 285.542969 487.042969 286.800781 C 485.363281 288.058594 482.394531 290.136719 480.453125 291.417969 C 478.507812 292.703125 474.632812 295.546875 471.835938 297.742188 C 469.042969 299.9375 464.96875 302.960938 462.78125 304.460938 C 460.59375 305.964844 457.945312 307.882812 456.894531 308.730469 C 453.910156 311.136719 451.070312 312.949219 448.425781 314.140625 C 446.054688 315.210938 444.289062 316.308594 440.695312 318.964844 C 439.722656 319.679688 437.734375 321.054688 436.277344 322.019531 C 430.71875 325.695312 427.972656 327.675781 425.539062 329.765625 C 424.15625 330.953125 421.730469 332.511719 420.152344 333.234375 C 412.777344 336.59375 411.558594 337.1875 410.480469 337.945312 C 409.847656 338.390625 406.628906 340.171875 403.328125 341.90625 C 400.03125 343.636719 396.601562 345.785156 395.710938 346.675781 C 394.265625 348.117188 394.089844 348.542969 394.089844 350.550781 C 394.089844 353.125 394.992188 354.773438 396.402344 354.773438 C 399.132812 354.773438 411.78125 351.960938 414.1875 350.820312 C 415.648438 350.128906 418.132812 349.027344 419.710938 348.367188 C 421.289062 347.710938 423.773438 346.324219 425.234375 345.289062 C 426.691406 344.257812 428.722656 342.984375 429.75 342.460938 C 430.777344 341.941406 432.46875 340.917969 433.507812 340.1875 C 434.542969 339.460938 436.777344 337.929688 438.472656 336.78125 C 440.164062 335.636719 442.152344 334.171875 442.886719 333.527344 C 443.625 332.882812 445.121094 331.78125 446.214844 331.078125 C 449.582031 328.914062 452.84375 326.4375 452.84375 326.046875 C 452.84375 325.84375 453.246094 325.550781 453.738281 325.394531 C 454.230469 325.238281 455.566406 324.300781 456.710938 323.3125 C 457.855469 322.320312 459.488281 321.222656 460.34375 320.871094 C 462.808594 319.851562 469.234375 315.890625 471.222656 314.164062 C 472.222656 313.296875 475.105469 311.207031 477.628906 309.515625 C 480.152344 307.828125 483.261719 305.460938 484.535156 304.253906 C 487.765625 301.195312 490.996094 298.835938 493.414062 297.765625 C 494.546875 297.265625 495.96875 296.382812 496.574219 295.804688 C 497.183594 295.226562 498.671875 294.332031 499.886719 293.816406 C 501.101562 293.300781 502.917969 292.074219 503.925781 291.09375 C 506.21875 288.851562 507.339844 288.921875 507.539062 291.320312 C 507.640625 292.566406 507.382812 293.445312 506.570312 294.628906 C 504.824219 297.171875 500.378906 307.722656 496.496094 318.527344 C 494.539062 323.980469 491.988281 330.242188 490.824219 332.441406 C 489.664062 334.640625 488.566406 336.9375 488.386719 337.546875 C 488.207031 338.152344 487.402344 339.679688 486.601562 340.9375 C 485.796875 342.195312 484.757812 343.984375 484.289062 344.914062 C 478.871094 355.644531 473.664062 365.472656 470.40625 371.097656 C 468.222656 374.875 464.867188 381.046875 462.953125 384.8125 C 461.035156 388.578125 458.722656 392.882812 457.8125 394.378906 C 456.734375 396.144531 455.660156 397.910156 454.589844 399.679688 C 453.730469 401.097656 452.585938 403.292969 452.050781 404.546875 C 451.515625 405.804688 450.132812 408.394531 448.980469 410.300781 C 446.972656 413.605469 445.578125 416.34375 437.402344 432.964844 C 435.429688 436.972656 432.832031 442.140625 431.628906 444.449219 C 430.425781 446.757812 429.4375 449.066406 429.433594 449.578125 C 429.429688 450.09375 429.019531 451.035156 428.523438 451.667969 C 428.023438 452.300781 426.902344 454.367188 426.03125 456.253906 C 425.160156 458.144531 424.078125 460.164062 423.628906 460.742188 C 421.996094 462.828125 421.328125 467.695312 422.398438 469.699219 C 422.636719 470.144531 423.570312 470.882812 424.472656 471.34375 C 425.878906 472.054688 426.644531 472.128906 429.773438 471.851562 C 433.863281 471.484375 434.191406 471.285156 437.472656 467.082031 C 438.515625 465.75 440.261719 463.613281 441.355469 462.335938 C 442.449219 461.058594 444.1875 458.503906 445.21875 456.65625 C 446.25 454.808594 447.988281 452.078125 449.085938 450.589844 C 450.179688 449.101562 451.074219 447.4375 451.074219 446.890625 C 451.074219 446.34375 451.421875 445.417969 451.847656 444.835938 C 453.074219 443.15625 453.695312 442.121094 454.394531 440.601562 C 454.753906 439.820312 455.644531 438.5 456.375 437.667969 C 457.886719 435.949219 459.007812 433.558594 459.515625 430.976562 C 459.707031 430.003906 459.992188 428.671875 460.15625 428.015625 C 460.402344 427 460.285156 426.777344 459.371094 426.550781 C 458.570312 426.347656 457.964844 426.59375 456.976562 427.523438 C 456.253906 428.207031 455.515625 429.148438 455.339844 429.613281 C 455.101562 430.246094 454.894531 430.335938 454.519531 429.957031 C 454.140625 429.582031 454.148438 429.199219 454.550781 428.449219 C 455.539062 426.59375 456.183594 425.554688 456.835938 424.777344 C 457.632812 423.828125 459.570312 420.410156 462.585938 414.632812 C 467.761719 404.710938 473.117188 396.296875 474.25 396.296875 C 474.664062 396.296875 474.761719 396.832031 474.605469 398.210938 L 474.390625 400.128906 L 477.863281 403.128906 C 481.742188 406.480469 484.214844 409.175781 489.042969 415.308594 C 490.851562 417.609375 493.347656 420.582031 494.585938 421.917969 C 495.828125 423.257812 497.503906 425.507812 498.308594 426.925781 C 500.253906 430.347656 509.121094 439.132812 513.71875 442.195312 C 516.351562 443.945312 522.902344 447.097656 523.910156 447.097656 C 524.164062 447.097656 525.296875 447.683594 526.425781 448.398438 C 527.554688 449.117188 529.101562 449.828125 529.863281 449.980469 C 530.628906 450.136719 532.265625 450.628906 533.503906 451.078125 C 538.109375 452.75 540.730469 452.953125 545.246094 452 C 551.214844 450.738281 552.390625 450.210938 554.429688 447.890625 C 556.066406 446.023438 556.226562 445.644531 555.960938 444.230469 C 555.753906 443.113281 555.125 442.210938 553.789062 441.117188 L 551.914062 439.582031 L 548.429688 440.25 C 546.515625 440.613281 544.207031 440.914062 543.304688 440.914062 C 541.148438 440.914062 537.871094 439.777344 535.671875 438.265625 C 534.699219 437.597656 531.972656 436.117188 529.617188 434.980469 C 527.257812 433.839844 523.878906 431.953125 522.105469 430.789062 C 520.332031 429.625 518.289062 428.367188 517.558594 427.992188 C 515.363281 426.863281 510.917969 421.863281 509.398438 418.8125 C 508.613281 417.242188 507.027344 414.960938 505.867188 413.746094 C 504.710938 412.53125 502.863281 410.230469 501.765625 408.628906 C 500.667969 407.03125 498.953125 404.84375 497.957031 403.769531 C 496.078125 401.746094 495.523438 400.179688 495.769531 397.59375 C 495.890625 396.296875 496.214844 395.914062 498.011719 394.945312 C 500.0625 393.839844 503.929688 391.078125 510.398438 386.09375 C 512.164062 384.734375 514.089844 383.363281 514.679688 383.046875 C 515.273438 382.734375 516.957031 381.539062 518.421875 380.394531 C 519.890625 379.25 521.617188 378.035156 522.261719 377.699219 C 524.152344 376.699219 530.019531 372.804688 532.496094 370.90625 C 533.757812 369.941406 535.738281 368.507812 536.898438 367.722656 C 539.40625 366.03125 546.34375 359.734375 552.132812 353.890625 C 554.792969 351.203125 556.761719 348.769531 557.597656 347.121094 C 558.632812 345.085938 559.246094 344.414062 560.542969 343.898438 C 563.128906 342.867188 563.964844 342.394531 565.207031 341.238281 C 566.214844 340.304688 566.371094 339.804688 566.371094 337.527344 L 566.371094 334.894531 L 563.992188 334.894531 C 561.988281 334.894531 561.578125 334.757812 561.382812 334.011719 C 560.894531 332.144531 555.660156 333.660156 552.480469 336.589844 C 551.429688 337.5625 549.769531 338.859375 548.792969 339.476562 C 545.9375 341.277344 539.28125 346.980469 537.695312 348.984375 C 536.890625 350 535.410156 351.25 534.40625 351.757812 C 533.398438 352.269531 531.34375 353.980469 529.832031 355.5625 C 528.324219 357.144531 525.984375 359.054688 524.632812 359.808594 C 523.285156 360.5625 520.941406 362.132812 519.429688 363.296875 C 517.914062 364.460938 515.554688 366.148438 514.1875 367.050781 C 512.820312 367.953125 509.382812 370.277344 506.554688 372.222656 C 503.722656 374.167969 500.46875 376.394531 499.324219 377.175781 C 498.175781 377.953125 495.945312 379.511719 494.367188 380.636719 C 492.789062 381.765625 489.210938 384.167969 486.414062 385.984375 C 483.621094 387.796875 480.011719 390.5625 478.390625 392.128906 C 475.683594 394.746094 474.046875 395.648438 474.046875 394.519531 C 474.046875 393.871094 476.625 388.785156 479.28125 384.199219 C 480.53125 382.035156 481.554688 379.921875 481.554688 379.496094 C 481.554688 379.074219 482.402344 377.558594 483.433594 376.136719 C 485.113281 373.820312 487.097656 370.746094 488.527344 368.246094 C 488.804688 367.761719 489.535156 366.222656 490.144531 364.824219 C 490.757812 363.429688 491.730469 361.542969 492.304688 360.628906 C 492.875 359.71875 493.753906 357.878906 494.253906 356.539062 C 495.875 352.195312 499.175781 345.308594 500.34375 343.832031 C 500.972656 343.035156 501.789062 341.644531 502.152344 340.738281 C 502.519531 339.832031 503.773438 337.105469 504.941406 334.675781 C 508.886719 326.457031 512.441406 317.4375 516 306.605469 C 517.277344 302.714844 518.664062 299.390625 519.519531 298.179688 C 520.515625 296.765625 521.082031 295.277344 521.453125 293.097656 C 521.742188 291.402344 522.308594 289.507812 522.71875 288.886719 C 523.277344 288.027344 523.519531 286.300781 523.714844 281.699219 L 523.96875 275.636719 L 522.675781 274.34375 C 521.746094 273.414062 520.953125 273.050781 519.855469 273.050781 C 519.015625 273.050781 518.082031 272.75 517.78125 272.386719 C 517.042969 271.5 515.742188 271.566406 513.425781 272.617188 M 315.507812 283.488281 C 313.726562 284.738281 314.824219 286.464844 316.75 285.4375 C 317.789062 284.878906 317.976562 283.425781 317.054688 283.070312 C 316.71875 282.941406 316.023438 283.128906 315.507812 283.488281 M 183.152344 430.753906 C 182.792969 431.335938 183.320312 432.164062 183.847656 431.839844 C 184.382812 431.507812 184.378906 430.3125 183.84375 430.3125 C 183.613281 430.3125 183.304688 430.511719 183.152344 430.753906 " fill-opacity="1" fill-rule="evenodd"></path></svg>