<svg xmlns="http://www.w3.org/2000/svg" xmlns:xlink="http://www.w3.org/1999/xlink" width="2048" zoomAndPan="magnify" viewBox="0 0 1536 573.000005" height="764" preserveAspectRatio="xMidYMid meet" version="1.0"><path fill="#000000" d="M 415.601562 157.167969 C 413.863281 158.878906 411.9375 161.25 411.328125 162.441406 C 410.714844 163.628906 409.152344 165.8125 407.855469 167.289062 C 406.558594 168.769531 404.574219 171.707031 403.449219 173.820312 C 402.324219 175.933594 401.113281 177.839844 400.761719 178.058594 C 399.855469 178.617188 397.261719 182.84375 396.660156 184.738281 C 396.382812 185.617188 394.542969 188.988281 392.574219 192.230469 C 390.601562 195.472656 388.066406 199.640625 386.9375 201.5 C 385.808594 203.355469 384.066406 206.457031 383.070312 208.390625 C 382.070312 210.324219 380.191406 213.449219 378.890625 215.332031 C 377.589844 217.21875 376.527344 219.109375 376.527344 219.535156 C 376.527344 220.46875 371.640625 230.046875 370.472656 231.402344 C 369.332031 232.726562 364.382812 242.214844 364.382812 243.082031 C 364.382812 243.46875 363.792969 244.414062 363.066406 245.183594 C 362.34375 245.957031 360.914062 248.640625 359.894531 251.152344 C 358.871094 253.664062 357.1875 256.953125 356.148438 258.460938 C 355.113281 259.96875 353.789062 262.832031 353.210938 264.828125 C 352.628906 266.820312 351.875 268.625 351.53125 268.839844 C 350.757812 269.316406 346.859375 277.714844 346.226562 280.265625 C 345.972656 281.296875 344.613281 284.113281 343.207031 286.523438 C 341.800781 288.929688 340.125 292.398438 339.488281 294.230469 C 338.847656 296.0625 337.578125 298.855469 336.660156 300.4375 C 335.746094 302.019531 334.996094 303.828125 334.992188 304.457031 C 334.988281 305.082031 334.574219 306.234375 334.070312 307.011719 C 332.960938 308.734375 327.796875 320.863281 326.667969 324.410156 C 326.21875 325.816406 323.234375 332.144531 320.03125 338.472656 C 316.832031 344.800781 313.921875 350.839844 313.570312 351.894531 C 313.21875 352.949219 311.945312 355.683594 310.738281 357.96875 C 308.324219 362.542969 303.804688 373.113281 301.355469 379.914062 C 300.492188 382.316406 299.136719 384.980469 298.347656 385.835938 L 296.90625 387.386719 L 297.308594 383.707031 C 297.703125 380.117188 299.453125 373.15625 301.414062 367.382812 C 301.945312 365.808594 302.945312 361.785156 303.632812 358.441406 C 304.324219 355.09375 305.617188 349.46875 306.511719 345.9375 C 307.40625 342.40625 308.140625 338.902344 308.140625 338.144531 C 308.140625 337.386719 308.816406 334.707031 309.648438 332.1875 C 310.476562 329.667969 311.457031 326.167969 311.824219 324.410156 C 312.191406 322.652344 313.097656 319.054688 313.839844 316.417969 C 314.582031 313.78125 315.628906 309.324219 316.160156 306.511719 C 316.695312 303.699219 317.421875 300.246094 317.777344 298.839844 C 318.128906 297.433594 318.976562 293.40625 319.65625 289.890625 C 320.339844 286.375 321.464844 281.40625 322.164062 278.847656 C 322.859375 276.285156 323.710938 272.402344 324.054688 270.214844 C 324.828125 265.265625 327.332031 255.394531 329.160156 250.070312 C 329.917969 247.859375 330.691406 244.695312 330.878906 243.039062 C 331.273438 239.5 332.410156 235.246094 333.257812 234.117188 C 333.589844 233.679688 334.234375 231.523438 334.695312 229.324219 C 337.222656 217.191406 337.8125 215.082031 338.933594 214.160156 C 339.6875 213.539062 340.367188 211.671875 340.796875 209.027344 C 341.480469 204.800781 343.914062 193.660156 345.539062 187.292969 C 346.035156 185.359375 346.59375 181.277344 346.78125 178.21875 C 347.097656 173.074219 347.023438 172.589844 345.769531 171.710938 C 345.023438 171.191406 344.082031 170.097656 343.679688 169.28125 C 343.160156 168.230469 342.105469 167.636719 340.066406 167.238281 C 337.410156 166.722656 336.804688 166.878906 332.09375 169.335938 C 322.183594 174.496094 321.308594 175.046875 319.683594 177.179688 C 318.785156 178.367188 315.890625 181.328125 313.253906 183.765625 C 310.617188 186.203125 307.394531 189.21875 306.09375 190.464844 C 305.082031 191.433594 304.070312 192.402344 303.058594 193.367188 C 300.761719 195.550781 293 204.648438 291.359375 207.082031 C 290.28125 208.679688 287.769531 211.714844 285.777344 213.824219 C 283.78125 215.933594 281.378906 218.828125 280.433594 220.261719 C 279.488281 221.695312 277.855469 223.503906 276.804688 224.28125 C 275.75 225.0625 274.171875 226.765625 273.300781 228.070312 C 272.425781 229.375 270.265625 232.167969 268.503906 234.277344 C 266.738281 236.386719 263.121094 240.988281 260.464844 244.503906 C 257.804688 248.019531 254.574219 252.144531 253.285156 253.664062 C 251.992188 255.1875 250.648438 257.082031 250.296875 257.878906 C 249.945312 258.675781 247.777344 261.355469 245.476562 263.835938 C 243.175781 266.320312 240.449219 269.601562 239.421875 271.128906 C 238.394531 272.660156 236.609375 274.988281 235.457031 276.308594 C 234.304688 277.628906 233.359375 278.980469 233.359375 279.3125 C 233.359375 279.644531 231.851562 281.722656 230.003906 283.933594 C 228.160156 286.140625 225.289062 289.824219 223.628906 292.117188 C 217.097656 301.128906 214.890625 303.976562 208.113281 312.132812 C 204.246094 316.789062 199.957031 322.320312 198.582031 324.421875 C 197.230469 326.480469 195.882812 328.539062 194.527344 330.597656 C 193.675781 331.894531 191.914062 334.050781 190.609375 335.394531 C 188.175781 337.902344 184.527344 342.226562 181.429688 346.273438 C 180.464844 347.535156 179.671875 349.273438 179.671875 350.128906 C 179.671875 351.171875 178.40625 352.984375 175.859375 355.597656 C 171.609375 359.957031 170.609375 362.46875 172.363281 364.402344 C 172.976562 365.082031 174.144531 365.640625 174.957031 365.640625 C 177.207031 365.640625 183.507812 362.546875 183.507812 361.441406 C 183.507812 360.914062 184.769531 359.941406 186.308594 359.28125 C 187.925781 358.585938 189.886719 357.039062 190.941406 355.625 C 191.949219 354.277344 193.144531 352.785156 193.597656 352.308594 C 194.046875 351.832031 195.535156 349.792969 196.90625 347.777344 C 198.273438 345.761719 200.089844 343.65625 200.941406 343.097656 C 202.742188 341.921875 211.058594 330.753906 213.867188 325.75 C 214.921875 323.871094 216.933594 320.980469 218.339844 319.328125 C 219.746094 317.679688 222.128906 314.890625 223.632812 313.132812 C 225.136719 311.378906 227.121094 308.738281 228.042969 307.265625 C 228.964844 305.796875 230.828125 302.917969 232.179688 300.871094 C 233.53125 298.824219 234.636719 296.761719 234.636719 296.28125 C 234.636719 295.804688 236.105469 294.027344 237.898438 292.332031 C 239.6875 290.636719 241.601562 288.390625 242.144531 287.335938 C 242.6875 286.28125 244.457031 283.695312 246.078125 281.589844 C 247.695312 279.484375 249.59375 276.980469 250.296875 276.03125 C 251 275.078125 253.621094 271.910156 256.125 268.988281 C 258.625 266.070312 261.140625 262.765625 261.710938 261.648438 C 262.28125 260.527344 264.292969 257.9375 266.179688 255.894531 C 268.066406 253.847656 270.121094 251.167969 270.75 249.9375 C 271.839844 247.800781 274.355469 244.792969 282.941406 235.351562 C 285.078125 233.003906 287.492188 230.117188 288.304688 228.941406 C 289.117188 227.761719 291.394531 225.164062 293.367188 223.167969 C 295.339844 221.167969 297.671875 218.480469 298.550781 217.195312 C 299.429688 215.90625 300.828125 214.484375 301.65625 214.035156 C 302.484375 213.582031 303.980469 212.027344 304.976562 210.578125 C 307.582031 206.789062 330.484375 184.738281 331.8125 184.738281 C 333.355469 184.738281 333.765625 186.1875 332.761719 188.117188 C 331.265625 191.003906 329.230469 196.890625 329.226562 198.34375 C 329.226562 199.121094 328.507812 201.175781 327.628906 202.902344 C 326.753906 204.632812 326.035156 206.804688 326.035156 207.730469 C 326.035156 208.65625 325.746094 209.699219 325.394531 210.054688 C 324.808594 210.640625 323.496094 214.890625 322.160156 220.535156 C 321.871094 221.765625 321.175781 224.496094 320.617188 226.605469 C 319.546875 230.644531 318.722656 234.519531 317.695312 240.351562 C 317.351562 242.285156 316.667969 244.875 316.167969 246.105469 C 315.671875 247.335938 315.097656 249.980469 314.894531 251.984375 C 314.691406 253.992188 313.5 258.738281 312.246094 262.535156 C 310.992188 266.328125 309.570312 271.304688 309.082031 273.589844 C 307.984375 278.71875 307.09375 282.640625 305.527344 289.25 C 304.859375 292.0625 303.890625 296.8125 303.375 299.800781 C 302.863281 302.789062 302.15625 306.527344 301.808594 308.109375 C 301.164062 311.035156 300.816406 312.367188 297.316406 325.367188 C 296.226562 329.410156 294.882812 334.875 294.328125 337.515625 C 293.769531 340.152344 292.765625 344.175781 292.09375 346.464844 C 291.417969 348.75 290.277344 353.496094 289.554688 357.011719 C 288.835938 360.527344 287.976562 363.675781 287.648438 364.011719 C 287.316406 364.34375 287.046875 365.339844 287.046875 366.226562 C 287.046875 367.109375 286.640625 368.996094 286.148438 370.414062 C 285.652344 371.832031 284.910156 375.148438 284.5 377.785156 C 284.089844 380.421875 283.488281 383.785156 283.164062 385.257812 C 282.398438 388.742188 282.417969 393.453125 283.226562 400.175781 C 284.023438 406.820312 284.617188 408.042969 287.707031 409.4375 C 289.824219 410.390625 290.574219 410.429688 293.546875 409.738281 C 299.949219 408.246094 300.082031 408.164062 302.386719 404.460938 C 303.617188 402.484375 305.878906 399.066406 307.414062 396.871094 C 308.949219 394.671875 310.609375 391.722656 311.105469 390.316406 C 311.601562 388.910156 312.402344 387.3125 312.886719 386.765625 C 313.777344 385.761719 317.410156 376.828125 319.785156 369.792969 C 320.496094 367.683594 321.769531 364.519531 322.613281 362.761719 C 323.457031 361.003906 324.863281 357.421875 325.738281 354.796875 C 326.613281 352.171875 328.429688 348.144531 329.773438 345.847656 C 332.449219 341.265625 335.835938 334.269531 336.589844 331.761719 C 336.851562 330.882812 338.144531 328.003906 339.460938 325.367188 C 340.777344 322.730469 342.609375 318.46875 343.535156 315.894531 C 344.460938 313.320312 347.078125 307.34375 349.359375 302.617188 C 351.636719 297.886719 353.691406 293.234375 353.925781 292.273438 C 354.320312 290.671875 358.652344 281.164062 362.148438 274.230469 C 362.945312 272.648438 363.8125 270.65625 364.070312 269.804688 C 364.464844 268.5 371.109375 255.867188 380.945312 237.71875 C 385.535156 229.246094 389.152344 222.097656 389.636719 220.535156 C 389.910156 219.65625 390.800781 218.058594 391.621094 216.984375 C 392.4375 215.910156 393.675781 213.753906 394.371094 212.1875 C 395.0625 210.625 396.367188 208.355469 397.265625 207.144531 C 398.164062 205.9375 398.898438 204.679688 398.898438 204.355469 C 398.898438 204.03125 400.164062 201.859375 401.710938 199.527344 C 403.257812 197.195312 405.019531 193.765625 405.625 191.910156 C 406.574219 189 408.441406 186.65625 409.8125 186.65625 C 410.402344 186.65625 409.710938 193.261719 409.046875 193.972656 C 408.738281 194.308594 408.480469 196.035156 408.472656 197.808594 C 408.464844 199.585938 408.042969 203.410156 407.527344 206.308594 C 407.015625 209.207031 406.769531 212.4375 406.980469 213.492188 C 407.21875 214.6875 407.007812 215.949219 406.417969 216.851562 C 405.140625 218.808594 404.714844 221.324219 404.007812 231.082031 C 403.675781 235.652344 403.132812 240.832031 402.804688 242.589844 C 402.472656 244.347656 401.726562 248.230469 401.140625 251.21875 C 400.558594 254.207031 399.867188 258.679688 399.601562 261.160156 C 399.339844 263.640625 398.898438 266.039062 398.621094 266.484375 C 398.347656 266.933594 397.871094 269.792969 397.566406 272.84375 C 397.265625 275.890625 396.703125 279.824219 396.324219 281.582031 C 395.945312 283.339844 395.363281 287.078125 395.035156 289.890625 C 394.707031 292.703125 394.167969 296.441406 393.835938 298.199219 C 393.507812 299.957031 392.910156 303.84375 392.511719 306.832031 C 391.769531 312.398438 391.257812 315.542969 389.921875 322.8125 C 389.152344 327.015625 388.136719 334.054688 387.710938 338.152344 C 386.734375 347.570312 385.957031 358.496094 385.683594 366.671875 C 385.386719 375.621094 385.464844 376.558594 386.757812 379.390625 C 387.523438 381.074219 388.285156 383.199219 388.453125 384.109375 C 388.914062 386.648438 392.839844 392.152344 395.6875 394.25 C 399.320312 396.917969 407.332031 398.050781 412.691406 396.65625 C 414.742188 396.121094 417.007812 395.683594 417.726562 395.683594 C 419.785156 395.679688 428.21875 389.851562 432.773438 385.285156 C 441.042969 376.984375 444.921875 372.734375 446.210938 370.542969 C 447.730469 367.96875 449.359375 367.042969 449.449219 368.695312 C 449.484375 369.300781 449.617188 372.816406 449.746094 376.507812 C 449.871094 380.199219 450.261719 384.226562 450.609375 385.457031 C 450.957031 386.6875 451.40625 388.480469 451.605469 389.441406 C 452.109375 391.890625 455.441406 395.472656 457.996094 396.316406 C 460.371094 397.101562 468.683594 396.644531 470.585938 395.628906 C 471.222656 395.285156 471.921875 394.292969 472.144531 393.417969 C 472.363281 392.542969 473.15625 391.328125 473.90625 390.71875 C 475.578125 389.363281 478.636719 385.464844 480.476562 382.34375 C 483.027344 378.007812 487.625 368.523438 488 366.816406 C 488.203125 365.882812 488.546875 364.660156 488.761719 364.101562 C 489.070312 363.296875 488.710938 363.082031 487.066406 363.082031 C 485.238281 363.082031 483.882812 364.171875 476.210938 371.800781 C 467.78125 380.1875 465.597656 382.066406 464.992188 381.457031 C 464.386719 380.855469 464.703125 356.832031 465.355469 353.8125 C 465.734375 352.054688 466.214844 345.582031 466.425781 339.429688 C 466.871094 326.425781 466.835938 326.339844 460.855469 325.636719 C 457.4375 325.238281 457.300781 325.285156 454.8125 327.707031 C 453.332031 329.144531 451.003906 332.722656 449.253906 336.246094 C 447.601562 339.578125 444.796875 344.597656 443.023438 347.394531 C 441.25 350.195312 439.800781 352.824219 439.800781 353.246094 C 439.800781 355.960938 422.957031 374.601562 416.464844 379.070312 C 413.273438 381.265625 407.265625 383.101562 405.089844 382.546875 C 404.148438 382.308594 402.957031 380.722656 401.453125 377.714844 L 399.21875 373.242188 L 399.230469 359.691406 C 399.242188 351.566406 399.554688 344.734375 400.015625 342.628906 C 400.832031 338.886719 402.820312 327.941406 404.3125 318.976562 C 404.808594 315.988281 405.816406 310.292969 406.550781 306.324219 C 407.289062 302.355469 407.765625 298.902344 407.613281 298.652344 C 407.460938 298.40625 407.742188 296.1875 408.234375 293.726562 C 408.730469 291.265625 409.410156 287.382812 409.746094 285.097656 C 410.867188 277.523438 411.554688 273.308594 412.207031 270.074219 C 412.558594 268.316406 413.179688 264.289062 413.589844 261.125 C 414 257.960938 414.597656 254.167969 414.921875 252.691406 C 415.25 251.21875 415.511719 249.203125 415.507812 248.21875 C 415.507812 247.230469 415.929688 244.554688 416.449219 242.269531 C 417.425781 237.96875 418.640625 228.589844 419.015625 222.453125 C 419.132812 220.519531 419.542969 218.125 419.929688 217.136719 C 420.3125 216.148438 420.628906 214.507812 420.628906 213.492188 C 420.628906 212.476562 420.914062 210.984375 421.261719 210.175781 C 421.609375 209.371094 422.316406 205.113281 422.828125 200.71875 C 423.34375 196.324219 424.203125 190.859375 424.738281 188.574219 C 425.277344 186.289062 425.84375 181.457031 425.996094 177.832031 C 426.152344 174.210938 426.550781 170.90625 426.882812 170.484375 C 427.214844 170.0625 427.675781 167.792969 427.90625 165.445312 C 428.515625 159.238281 427.261719 156.394531 423.339844 155.054688 C 421.722656 154.503906 420.03125 154.054688 419.582031 154.054688 C 419.128906 154.054688 417.339844 155.457031 415.601562 157.167969 M 421.65625 172.964844 C 421.140625 174.304688 421.164062 174.511719 421.832031 174.511719 C 422.140625 174.511719 422.546875 173.933594 422.730469 173.230469 C 423.125 171.722656 422.21875 171.496094 421.65625 172.964844 M 342.160156 174.222656 C 339.96875 175.757812 340.3125 177.1875 342.8125 176.949219 C 344.527344 176.78125 344.890625 176.476562 344.890625 175.203125 C 344.890625 173.261719 343.992188 172.9375 342.160156 174.222656 M 332.425781 176.425781 C 332.425781 177.671875 333.105469 178.09375 333.875 177.324219 C 334.386719 176.8125 333.714844 175.148438 332.996094 175.148438 C 332.683594 175.148438 332.425781 175.722656 332.425781 176.425781 M 340.820312 179.464844 C 339.847656 181.28125 339.90625 182.609375 340.976562 183.019531 C 341.941406 183.390625 343.292969 182.339844 343.292969 181.214844 C 343.292969 180.824219 342.898438 179.96875 342.417969 179.3125 C 341.570312 178.152344 341.519531 178.15625 340.820312 179.464844 M 344.25 180.902344 C 344.035156 181.253906 344.160156 181.542969 344.53125 181.542969 C 344.90625 181.542969 345.210938 181.253906 345.210938 180.902344 C 345.210938 180.550781 345.082031 180.261719 344.925781 180.261719 C 344.773438 180.261719 344.46875 180.550781 344.25 180.902344 M 918.066406 181.835938 C 913.320312 183.609375 904.660156 188.191406 902.816406 189.902344 C 902.089844 190.578125 901.121094 191.128906 900.660156 191.128906 C 900.199219 191.128906 898.0625 192.332031 895.910156 193.800781 C 893.320312 195.5625 890.726562 197.320312 888.132812 199.074219 C 886.011719 200.503906 881.445312 203.835938 877.992188 206.472656 C 872.351562 210.773438 865.398438 215.871094 858.117188 221.042969 C 856.710938 222.042969 854.554688 223.25 853.324219 223.726562 C 852.09375 224.199219 849.074219 226.066406 846.613281 227.875 C 844.152344 229.679688 839.984375 232.558594 837.347656 234.273438 C 834.710938 235.984375 831.3125 238.507812 829.796875 239.875 C 828.285156 241.246094 825.980469 242.804688 824.683594 243.335938 C 819.578125 245.441406 814.066406 248.125 812.367188 249.335938 C 811.386719 250.035156 808.480469 251.636719 805.910156 252.898438 C 799.4375 256.066406 797.71875 257.796875 797.71875 261.144531 C 797.71875 265.304688 798.988281 266.066406 804.128906 264.992188 C 806.402344 264.515625 809.992188 263.78125 812.101562 263.363281 C 814.210938 262.945312 816.796875 262.179688 817.851562 261.65625 C 818.90625 261.136719 821.160156 260.175781 822.855469 259.523438 C 824.554688 258.867188 827.863281 257.125 830.207031 255.644531 C 838.886719 250.171875 843.492188 247.085938 846.257812 244.882812 C 847.820312 243.636719 850.839844 241.496094 852.96875 240.121094 C 855.097656 238.746094 857.453125 237.015625 858.203125 236.269531 C 860.058594 234.425781 864.53125 231.382812 868.117188 229.523438 C 869.753906 228.675781 872.542969 226.957031 874.324219 225.699219 C 876.101562 224.441406 880.085938 221.632812 883.175781 219.460938 C 886.269531 217.289062 890.285156 214.09375 892.101562 212.363281 C 893.917969 210.632812 896.792969 208.5625 898.492188 207.765625 C 900.191406 206.96875 902.371094 205.652344 903.335938 204.839844 C 904.300781 204.027344 905.738281 203.160156 906.53125 202.914062 C 907.324219 202.667969 909.0625 201.488281 910.394531 200.292969 C 911.726562 199.097656 913.09375 198.289062 913.429688 198.496094 C 914.507812 199.164062 914.089844 201.945312 912.546875 204.40625 C 911.722656 205.71875 910.253906 208.785156 909.285156 211.21875 C 908.3125 213.65625 907.257812 216.101562 906.933594 216.652344 C 906.613281 217.207031 904.644531 222.40625 902.5625 228.207031 C 899.074219 237.921875 896.144531 244.292969 889.328125 256.96875 C 887.914062 259.609375 884.65625 265.792969 882.097656 270.714844 C 879.539062 275.636719 877.234375 279.949219 876.972656 280.300781 C 876.152344 281.425781 873.050781 287.125 869.3125 294.386719 C 865.394531 302 862.855469 306.5 860.488281 310.019531 C 859.664062 311.25 857.972656 314.414062 856.726562 317.050781 C 855.484375 319.691406 854.105469 322.285156 853.667969 322.8125 C 853.230469 323.339844 851.574219 326.359375 849.988281 329.523438 C 839.804688 349.832031 834.144531 361.621094 834.148438 362.527344 C 834.148438 363.097656 833.757812 363.894531 833.273438 364.292969 C 832.792969 364.691406 831.601562 366.8125 830.628906 369.003906 C 829.652344 371.199219 828.273438 373.820312 827.5625 374.835938 C 825.6875 377.511719 825.867188 382.742188 827.886719 384.296875 C 829.359375 385.429688 834.851562 385.871094 837.667969 385.078125 C 839.121094 384.671875 846.238281 376.167969 849.289062 371.195312 C 850.40625 369.371094 852.261719 366.59375 853.402344 365.027344 C 854.546875 363.457031 855.800781 361.261719 856.183594 360.144531 C 856.566406 359.03125 857.253906 357.664062 857.714844 357.113281 C 858.171875 356.558594 858.382812 355.835938 858.175781 355.507812 C 857.972656 355.175781 858.234375 354.742188 858.761719 354.539062 C 859.285156 354.339844 859.714844 353.820312 859.714844 353.386719 C 859.714844 352.949219 860.53125 351.71875 861.523438 350.648438 C 862.519531 349.578125 863.699219 347.40625 864.148438 345.824219 C 864.59375 344.242188 865.234375 342.253906 865.566406 341.40625 C 866.144531 339.941406 865.492188 338.832031 864.039062 338.800781 C 863.203125 338.785156 860.996094 340.96875 860.996094 341.8125 C 860.996094 342.261719 860.722656 342.628906 860.394531 342.628906 C 859.152344 342.628906 859.136719 341.445312 860.355469 339.894531 C 861.992188 337.8125 866.253906 330.5625 868.703125 325.6875 C 873.007812 317.128906 878.210938 308.898438 879.953125 307.898438 C 880.609375 307.523438 880.6875 307.132812 880.222656 306.574219 C 879.746094 306 880.710938 303.71875 883.699219 298.339844 C 885.976562 294.246094 887.839844 290.621094 887.839844 290.277344 C 887.839844 289.933594 889.5625 287.074219 891.671875 283.921875 C 893.78125 280.765625 895.507812 277.882812 895.507812 277.511719 C 895.507812 277.136719 896.277344 275.457031 897.222656 273.773438 C 899.847656 269.085938 900.613281 267.5625 900.617188 267.023438 C 900.625 266.195312 905.769531 255.4375 906.648438 254.414062 C 907.351562 253.59375 909.476562 249.148438 915.347656 236.195312 C 917.023438 232.5 922.683594 217.007812 923.929688 212.714844 C 924.515625 210.699219 925.292969 208.867188 925.65625 208.640625 C 926.710938 207.988281 928.714844 203.125 928.730469 201.175781 C 928.738281 200.195312 929.160156 198.757812 929.667969 197.980469 C 930.28125 197.035156 930.640625 194.453125 930.738281 190.238281 C 930.878906 184.265625 930.804688 183.84375 929.375 182.683594 C 928.539062 182.007812 927.347656 181.589844 926.726562 181.753906 C 926.105469 181.914062 925.261719 181.648438 924.851562 181.15625 C 923.867188 179.96875 922.777344 180.078125 918.066406 181.835938 M 316.359375 189.269531 C 316.019531 189.476562 315.667969 190.351562 315.578125 191.214844 C 315.484375 192.078125 315.195312 193.128906 314.933594 193.554688 C 314.605469 194.082031 314.980469 194.324219 316.105469 194.324219 C 317.238281 194.324219 317.933594 193.867188 318.316406 192.863281 C 318.621094 192.054688 319.332031 191.015625 319.898438 190.546875 C 320.460938 190.078125 320.921875 189.484375 320.921875 189.226562 C 320.921875 188.679688 317.265625 188.714844 316.359375 189.269531 M 532.035156 236.8125 C 530.914062 237.300781 527.542969 240.152344 524.550781 243.148438 C 521.554688 246.140625 517.449219 249.6875 515.429688 251.023438 C 511.464844 253.648438 508.828125 256.933594 508.828125 259.246094 C 508.828125 260.039062 509.984375 262.15625 511.398438 263.945312 L 513.972656 267.199219 L 519.550781 267.179688 C 523.4375 267.164062 525.503906 266.875 526.367188 266.21875 C 527.050781 265.703125 528.164062 265.28125 528.839844 265.28125 C 530.691406 265.28125 535.492188 262.171875 539.3125 258.507812 C 542.410156 255.527344 542.703125 255.003906 542.703125 252.402344 C 542.703125 248.832031 541.894531 248.023438 538.335938 248.023438 L 535.5 248.023438 L 535.910156 245.011719 C 536.140625 243.355469 536.609375 241.714844 536.957031 241.367188 C 537.304688 241.019531 537.589844 239.921875 537.589844 238.929688 C 537.589844 237.578125 537.175781 236.964844 535.949219 236.5 C 535.050781 236.15625 534.257812 235.886719 534.191406 235.902344 C 534.128906 235.914062 533.15625 236.324219 532.035156 236.8125 M 965.238281 243.648438 C 964.042969 243.992188 961.539062 245.476562 959.671875 246.945312 C 957.550781 248.613281 955.402344 250.25 953.234375 251.855469 C 951.558594 253.085938 948.242188 256.035156 945.863281 258.410156 C 943.484375 260.78125 941.222656 262.722656 940.839844 262.722656 C 940.457031 262.722656 938.800781 264.128906 937.160156 265.84375 C 935.519531 267.554688 932.882812 269.609375 931.300781 270.398438 C 929.71875 271.191406 927.253906 272.878906 925.824219 274.152344 C 924.390625 275.425781 922.378906 276.960938 921.347656 277.566406 C 920.316406 278.171875 915.304688 281.566406 910.207031 285.105469 C 905.109375 288.644531 897.777344 293.660156 893.910156 296.246094 C 884.976562 302.226562 880.167969 307.148438 880.167969 310.3125 C 880.167969 310.871094 882.574219 313.691406 885.515625 316.589844 C 888.457031 319.484375 892.238281 323.722656 893.921875 326.007812 C 895.605469 328.292969 898.203125 331.457031 899.695312 333.039062 C 901.1875 334.621094 903.421875 337.496094 904.660156 339.429688 C 907.011719 343.105469 915.785156 351.988281 919.65625 354.617188 C 920.894531 355.457031 923.804688 357.003906 926.125 358.054688 C 928.445312 359.105469 931.777344 360.632812 933.535156 361.449219 C 938.066406 363.558594 943.066406 365.054688 946.894531 365.449219 C 950.382812 365.808594 959.910156 363.652344 965.929688 361.136719 C 969.910156 359.476562 970.691406 359.546875 973.261719 361.804688 C 974.632812 363.007812 976.210938 363.75 977.5 363.800781 C 982.945312 364.011719 986.707031 363.535156 988.503906 362.410156 C 989.558594 361.75 992.433594 360.15625 994.894531 358.867188 C 999.679688 356.359375 1005.816406 350.636719 1010.449219 344.363281 C 1013.265625 340.554688 1017.164062 337.179688 1018.089844 337.75 C 1018.398438 337.941406 1018.695312 339.332031 1018.746094 340.84375 C 1018.902344 345.191406 1020.121094 352.886719 1021.210938 356.371094 C 1023.542969 363.824219 1027.324219 368.488281 1033.683594 371.75 C 1036.726562 373.3125 1037.707031 373.484375 1043.195312 373.417969 C 1050.09375 373.332031 1054.375 371.925781 1056.191406 369.160156 C 1056.765625 368.277344 1057.613281 367.558594 1058.070312 367.558594 C 1058.527344 367.558594 1060.671875 365.761719 1062.835938 363.5625 C 1065 361.367188 1067.949219 358.417969 1069.390625 357.011719 C 1073.097656 353.394531 1077.078125 348.054688 1079.59375 343.335938 C 1080.78125 341.109375 1082.410156 338.988281 1083.210938 338.625 C 1084.011719 338.257812 1084.84375 337.40625 1085.058594 336.730469 C 1085.285156 336.011719 1085.820312 335.648438 1086.347656 335.847656 C 1086.84375 336.039062 1087.25 335.9375 1087.25 335.628906 C 1087.25 335.027344 1095.636719 339.246094 1096.222656 340.140625 C 1096.734375 340.925781 1104.410156 344.300781 1107.683594 345.179688 C 1109.257812 345.605469 1111.363281 346.640625 1112.367188 347.484375 C 1113.371094 348.328125 1114.4375 349.019531 1114.734375 349.019531 C 1115.03125 349.019531 1115.742188 349.953125 1116.3125 351.09375 C 1116.882812 352.238281 1116.996094 352.816406 1116.5625 352.382812 C 1114.636719 350.457031 1095.304688 372.351562 1094.488281 377.386719 C 1094.039062 380.152344 1095.5 383.574219 1097.765625 385.058594 C 1100.3125 386.726562 1106.195312 386.398438 1112.429688 384.238281 C 1119.59375 381.753906 1119.988281 381.515625 1126.113281 375.921875 C 1132.414062 370.171875 1133.703125 367.945312 1134.660156 361.164062 C 1135.5 355.222656 1136.738281 352.882812 1140.320312 350.460938 C 1141.746094 349.492188 1144.597656 347.476562 1146.648438 345.984375 C 1148.699219 344.488281 1150.699219 343.265625 1151.089844 343.265625 C 1151.484375 343.265625 1151.804688 342.929688 1151.804688 342.519531 C 1151.804688 342.109375 1151.992188 341.964844 1152.222656 342.195312 C 1152.453125 342.425781 1152.972656 342.34375 1153.375 342.011719 C 1153.773438 341.679688 1155.3125 341.210938 1156.789062 340.976562 C 1159.914062 340.476562 1159.941406 340.558594 1158.515625 346.039062 C 1157.363281 350.460938 1157.3125 352.984375 1158.292969 357.234375 C 1159.429688 362.15625 1160.957031 363.617188 1166.070312 364.683594 C 1172.667969 366.058594 1174.03125 365.304688 1182.113281 355.808594 C 1189.1875 347.496094 1193.074219 343.746094 1198.140625 340.335938 C 1205.066406 335.671875 1207.382812 337.046875 1207.828125 346.085938 C 1208.074219 351.089844 1208.371094 352.683594 1210.34375 359.613281 C 1211.339844 363.117188 1212.695312 364.132812 1218.847656 366 C 1222.238281 367.027344 1223.769531 366.417969 1227.257812 362.65625 C 1229.992188 359.707031 1231.917969 356.757812 1235.539062 349.980469 C 1238.53125 344.378906 1240.679688 341.714844 1243.328125 340.332031 C 1246.445312 338.703125 1247.785156 339.179688 1250.871094 343.015625 C 1258.878906 352.980469 1263.867188 357.960938 1265.84375 357.972656 C 1266.21875 357.976562 1267.390625 358.4375 1268.445312 359 C 1271.476562 360.613281 1277.859375 362.609375 1279.859375 362.566406 C 1283.265625 362.492188 1289.855469 358.402344 1289.855469 356.363281 C 1289.855469 354.691406 1286.855469 352.851562 1283.707031 352.589844 C 1278.9375 352.195312 1275.992188 350.292969 1269.488281 343.421875 C 1256.828125 330.042969 1255.25 328.644531 1251.667969 327.59375 C 1247.972656 326.511719 1241.195312 326.828125 1237.765625 328.242188 C 1234.902344 329.425781 1230.242188 333.824219 1226.914062 338.484375 C 1225.292969 340.761719 1223.578125 342.628906 1223.113281 342.628906 C 1222.554688 342.628906 1222.035156 341.144531 1221.605469 338.3125 C 1220.648438 332.039062 1218.15625 327.105469 1214.546875 324.339844 C 1211.863281 322.285156 1211.277344 322.089844 1208.757812 322.433594 C 1207.214844 322.640625 1204.878906 322.8125 1203.574219 322.8125 C 1202.089844 322.8125 1200.308594 323.414062 1198.839844 324.410156 C 1197.546875 325.289062 1196.03125 326.007812 1195.472656 326.007812 C 1193.355469 326.007812 1184.683594 331.476562 1180.414062 335.507812 C 1176.195312 339.488281 1175.910156 339.644531 1175.066406 338.492188 C 1174.574219 337.820312 1174.140625 335.8125 1174.097656 334.035156 C 1173.992188 329.597656 1173.390625 327.1875 1172.253906 326.65625 C 1171.398438 326.242188 1170.554688 325.816406 1169.714844 325.371094 C 1165.40625 323.101562 1155.472656 324.851562 1147.96875 329.203125 C 1145.332031 330.734375 1140.730469 333.234375 1137.742188 334.761719 C 1134.753906 336.285156 1131.332031 338.25 1130.136719 339.121094 C 1128.941406 339.996094 1127.359375 340.707031 1126.621094 340.707031 C 1124.847656 340.703125 1121.371094 338.542969 1119.429688 336.234375 C 1117.617188 334.082031 1109.203125 329.929688 1104.730469 328.984375 C 1104.328125 328.898438 1103.582031 328.484375 1103.074219 328.0625 C 1102.566406 327.640625 1102.003906 327.445312 1101.820312 327.625 C 1101.640625 327.808594 1101.128906 327.515625 1100.683594 326.980469 C 1100.238281 326.445312 1099.609375 326.007812 1099.289062 326.007812 C 1098.964844 326.007812 1096.96875 324.570312 1094.855469 322.808594 C 1092.742188 321.050781 1090.175781 319.179688 1089.152344 318.648438 C 1088.125 318.117188 1086.980469 317.113281 1086.605469 316.414062 C 1085.753906 314.820312 1083.984375 314.804688 1079.898438 316.351562 L 1076.703125 317.566406 L 1076.191406 323.542969 C 1075.734375 328.855469 1075.433594 329.882812 1073.503906 332.71875 C 1070.503906 337.132812 1065.085938 343.117188 1063.683594 343.5625 C 1063.027344 343.769531 1062.144531 345.105469 1061.660156 346.636719 C 1061.183594 348.121094 1059.992188 350.285156 1059.003906 351.441406 C 1058.015625 352.59375 1057.210938 353.785156 1057.210938 354.085938 C 1057.210938 354.386719 1054.9375 355.8125 1052.160156 357.257812 C 1047.675781 359.59375 1046.613281 359.886719 1042.714844 359.886719 C 1037.46875 359.886719 1036.023438 359.066406 1034.257812 355.074219 C 1032.542969 351.195312 1031.003906 344.976562 1031.003906 341.917969 C 1031.003906 340.527344 1030.621094 338.464844 1030.148438 337.332031 C 1029.679688 336.203125 1029.429688 334.84375 1029.597656 334.316406 C 1029.765625 333.789062 1029.671875 333.574219 1029.394531 333.832031 C 1028.867188 334.324219 1026.257812 328.855469 1025.636719 325.957031 C 1025.015625 323.054688 1018.992188 321.074219 1015.855469 322.742188 C 1012.128906 324.722656 1006.367188 329.472656 1002.882812 333.429688 C 999.257812 337.554688 992.851562 344.09375 990.179688 346.402344 C 988.375 347.957031 984.535156 348.820312 983.59375 347.878906 C 981.691406 345.976562 988.335938 337.144531 993.933594 334.136719 C 998.207031 331.839844 1002.703125 328.683594 1003.070312 327.71875 C 1003.402344 326.855469 1010.816406 322.171875 1011.855469 322.171875 C 1012.167969 322.171875 1012.710938 321.636719 1013.0625 320.980469 C 1013.898438 319.417969 1012.722656 317.851562 1010.410156 317.449219 C 1009.449219 317.285156 1007.839844 316.660156 1006.828125 316.0625 C 1005.230469 315.117188 1004.449219 315.070312 1000.847656 315.699219 C 998.570312 316.09375 995.664062 316.417969 994.390625 316.417969 C 991.578125 316.417969 989.578125 317.269531 984.988281 320.425781 C 977.714844 325.421875 974.679688 328.261719 971.886719 332.699219 C 967.8125 339.167969 966.597656 342.015625 966.15625 346.152344 C 965.636719 351.003906 965.628906 351.011719 958.398438 352.457031 C 950.921875 353.957031 948.628906 353.808594 944.636719 351.582031 C 942.75 350.53125 939.625 348.925781 937.691406 348.011719 C 931.8125 345.234375 923.46875 339.984375 920.566406 337.234375 C 919.054688 335.804688 917.113281 333.140625 916.246094 331.3125 C 915.382812 329.484375 913.652344 326.894531 912.402344 325.558594 C 911.152344 324.222656 909.230469 321.835938 908.132812 320.253906 C 907.035156 318.671875 905.902344 317.214844 905.613281 317.019531 C 903.972656 315.894531 901.898438 312.085938 901.898438 310.191406 C 901.898438 308.457031 902.277344 307.84375 903.882812 306.960938 C 905.832031 305.890625 913.203125 300.710938 915.558594 298.753906 C 917.496094 297.148438 927.445312 290.003906 929.6875 288.613281 C 936.640625 284.296875 938.089844 283.339844 939.871094 281.878906 C 940.957031 280.988281 942.996094 279.511719 944.402344 278.59375 C 949.058594 275.5625 963.785156 260.910156 965.371094 257.730469 C 966.515625 255.429688 967.339844 254.617188 969.019531 254.136719 C 971.625 253.390625 976.039062 249.15625 976.039062 247.40625 C 976.039062 245.792969 973.855469 244.625 971.492188 244.972656 C 970.320312 245.144531 969.648438 244.960938 969.648438 244.464844 C 969.648438 243.847656 968.015625 242.699219 967.519531 242.964844 C 967.460938 242.996094 966.433594 243.304688 965.238281 243.648438 M 601.089844 246.855469 C 599.753906 247.5 598.886719 249.816406 598.011719 255.042969 C 597.78125 256.433594 596.703125 258.234375 595.148438 259.835938 L 592.652344 262.402344 L 591.953125 270.074219 C 590.824219 282.523438 590.128906 288.148438 589.445312 290.363281 C 587.609375 296.304688 586.164062 302.484375 586.167969 304.378906 C 586.167969 305.550781 585.476562 308.8125 584.628906 311.625 C 583.78125 314.4375 582.753906 318.464844 582.34375 320.574219 C 581.9375 322.683594 580.46875 328.003906 579.085938 332.398438 C 577.703125 336.792969 576.570312 340.859375 576.574219 341.429688 C 576.578125 342.003906 576.183594 343.441406 575.703125 344.628906 C 575.222656 345.8125 574.640625 348.707031 574.410156 351.054688 C 574.183594 353.40625 573.574219 356.515625 573.0625 357.96875 C 572.441406 359.730469 572.09375 363.632812 572.015625 369.679688 C 571.910156 378.105469 572.019531 379.015625 573.535156 382.578125 C 574.960938 385.941406 575.546875 386.601562 578.269531 387.941406 C 581.039062 389.304688 581.664062 389.390625 584.097656 388.742188 C 585.597656 388.339844 587.851562 388.011719 589.113281 388.011719 C 592.425781 388.011719 598.304688 384.21875 604.429688 378.125 C 607.273438 375.300781 610.664062 371.410156 611.964844 369.476562 C 615.128906 364.78125 618.253906 360.253906 621.011719 356.371094 C 622.492188 354.273438 623.945312 352.15625 625.371094 350.019531 C 628.308594 345.582031 628.972656 345.589844 629.046875 350.085938 C 629.082031 352.136719 629.171875 357.839844 629.246094 362.761719 C 629.410156 373.359375 630.203125 375.539062 635.152344 379.003906 C 636.859375 380.199219 639.40625 382.242188 640.8125 383.546875 C 643.894531 386.410156 645.890625 387.480469 651.402344 389.234375 C 659.074219 391.675781 671.183594 390.75 678.632812 387.160156 C 680.328125 386.34375 682.394531 385.398438 683.222656 385.0625 C 684.050781 384.726562 687.296875 381.871094 690.4375 378.71875 C 696.613281 372.523438 700.226562 366.414062 700.984375 360.878906 C 702.046875 353.125 699.3125 352.71875 693.207031 359.726562 C 687.527344 366.246094 680.894531 372.210938 678.160156 373.257812 C 676.953125 373.722656 675.015625 374.515625 673.859375 375.027344 C 672.699219 375.535156 669.296875 376.3125 666.296875 376.75 C 661.410156 377.464844 660.332031 377.421875 655.980469 376.34375 C 653.175781 375.648438 650.335938 374.484375 649.273438 373.585938 C 648.253906 372.730469 647.007812 372.03125 646.5 372.03125 C 645.992188 372.03125 645.3125 371.382812 644.984375 370.59375 C 644.234375 368.769531 642.453125 352.488281 642.453125 347.453125 C 642.453125 343.355469 642.179688 341.609375 640.703125 336.382812 C 639.894531 333.511719 639.390625 332.828125 637.273438 331.75 C 633.140625 329.640625 630.085938 330.042969 625.554688 333.285156 C 621.464844 336.210938 614.238281 343.84375 608.835938 350.9375 C 607.097656 353.222656 603.871094 357.039062 601.671875 359.417969 C 599.46875 361.800781 597.667969 364.144531 597.667969 364.632812 C 597.667969 366.8125 586.804688 374.359375 585.941406 372.777344 C 585.09375 371.214844 588.480469 350.863281 590.363281 346.234375 C 591.21875 344.128906 591.917969 341.789062 591.917969 341.035156 C 591.917969 339.632812 592.691406 336.648438 595.394531 327.605469 C 596.238281 324.792969 597.398438 320.335938 597.972656 317.699219 C 598.550781 315.0625 599.40625 311.464844 599.882812 309.707031 C 601.027344 305.441406 603.3125 294.996094 603.796875 291.808594 C 604.007812 290.402344 604.71875 286.519531 605.371094 283.179688 C 607.203125 273.816406 607.308594 273.039062 607.546875 267.21875 C 607.847656 259.882812 608.347656 257.136719 609.933594 254.039062 C 610.917969 252.113281 611.160156 250.828125 610.847656 249.164062 C 610.472656 247.160156 610.15625 246.859375 608.042969 246.511719 C 604.761719 245.96875 602.707031 246.070312 601.089844 246.855469 M 408.488281 253.765625 C 407.867188 254.925781 407.992188 255.054688 409.742188 255.054688 C 411.949219 255.054688 412.277344 254.140625 410.429688 253.148438 C 409.417969 252.609375 409.042969 252.726562 408.488281 253.765625 M 898.382812 253.136719 C 898.167969 253.488281 898.292969 253.773438 898.667969 253.773438 C 899.039062 253.773438 899.34375 254.09375 899.34375 254.480469 C 899.34375 254.871094 898.960938 255.042969 898.5 254.867188 C 897.324219 254.414062 895.886719 256.746094 896.960938 257.363281 C 897.390625 257.613281 897.53125 257.578125 897.269531 257.289062 C 897.007812 257 897.441406 256.441406 898.226562 256.050781 C 899.015625 255.65625 899.664062 254.910156 899.664062 254.394531 C 899.664062 253.878906 899.949219 253.242188 900.300781 252.984375 C 900.664062 252.71875 900.476562 252.511719 899.859375 252.503906 C 899.265625 252.5 898.601562 252.785156 898.382812 253.136719 M 320.933594 263.203125 C 320.941406 264.574219 321.078125 264.75 321.5625 264.003906 C 322.371094 262.75 322.371094 261.445312 321.5625 261.445312 C 321.210938 261.445312 320.925781 262.238281 320.933594 263.203125 M 316.773438 267.832031 C 316.546875 268.191406 316.804688 268.300781 317.375 268.082031 C 318.480469 267.65625 318.683594 267.199219 317.765625 267.199219 C 317.433594 267.199219 316.988281 267.484375 316.773438 267.832031 M 239.332031 284.164062 C 239.125 284.707031 239.113281 285.3125 239.3125 285.507812 C 239.871094 286.066406 241.03125 285.117188 241.03125 284.101562 C 241.03125 282.875 239.808594 282.921875 239.332031 284.164062 M 229.472656 294.859375 C 229.335938 295.25 229.179688 298.519531 229.304688 298.519531 C 230.105469 298.519531 232.722656 297.144531 232.722656 296.722656 C 232.722656 296.246094 229.613281 294.460938 229.472656 294.859375 M 223.574219 303.410156 C 222.695312 304.285156 223.152344 305.644531 224.253906 305.429688 C 224.867188 305.3125 225.371094 304.8125 225.371094 304.320312 C 225.371094 303.308594 224.242188 302.738281 223.574219 303.410156 M 218.5 309 C 217.203125 309.984375 217.015625 311.316406 218.179688 311.285156 C 219.035156 311.261719 221.855469 309.113281 221.855469 308.484375 C 221.855469 307.796875 219.636719 308.136719 218.5 309 M 1337.472656 314.429688 C 1333.207031 314.894531 1329.15625 317.09375 1327.097656 320.058594 C 1325.328125 322.613281 1325 323.828125 1325.851562 324.679688 C 1326.417969 325.242188 1326.367188 325.566406 1325.644531 326.023438 C 1324.972656 326.445312 1324.445312 326.296875 1323.863281 325.515625 C 1323.289062 324.746094 1322.027344 324.375 1319.710938 324.300781 C 1317.878906 324.242188 1315.519531 324.015625 1314.464844 323.796875 C 1311.898438 323.261719 1309.234375 325.488281 1308.757812 328.566406 C 1307.714844 335.320312 1307.128906 338.210938 1306.585938 339.242188 C 1305.507812 341.296875 1305.144531 345.441406 1305.78125 348.378906 C 1309.925781 367.390625 1309.546875 366.683594 1317.917969 371.003906 C 1324.9375 374.628906 1330.957031 375.492188 1334.964844 373.449219 C 1336.347656 372.742188 1338.695312 371.839844 1340.179688 371.4375 C 1341.816406 370.996094 1344.332031 369.4375 1346.566406 367.46875 C 1348.597656 365.6875 1350.871094 363.988281 1351.621094 363.699219 C 1354.027344 362.765625 1357.332031 354.894531 1359.925781 343.90625 C 1361.019531 339.269531 1360.785156 331.570312 1359.476562 329.101562 C 1357.941406 326.214844 1351.777344 319.207031 1349.75 318.046875 C 1348.621094 317.402344 1347.109375 316.34375 1346.390625 315.699219 C 1344.757812 314.230469 1342.394531 313.894531 1337.472656 314.429688 M 574.003906 317.21875 C 571.472656 318.933594 571.175781 319.613281 572.285156 321.132812 C 572.957031 322.054688 573.53125 322.171875 575.21875 321.734375 C 577.902344 321.039062 579.761719 318.265625 578.535156 316.789062 C 577.410156 315.429688 576.515625 315.515625 574.003906 317.21875 M 531.382812 326.863281 C 527.597656 329.0625 524.890625 331.210938 523.34375 333.238281 C 522.394531 334.488281 521.039062 335.691406 520.335938 335.914062 C 519.632812 336.136719 517.738281 338.171875 516.121094 340.4375 C 513.238281 344.480469 511.726562 348.351562 509.773438 356.691406 C 509.238281 358.976562 508.488281 361.816406 508.105469 363 C 507.671875 364.355469 507.578125 367.15625 507.863281 370.546875 L 508.3125 375.941406 L 512.246094 380.382812 C 515.910156 384.515625 516.523438 384.929688 521.167969 386.417969 C 524.640625 387.527344 527.59375 388.011719 530.898438 388.011719 C 535.265625 388.011719 535.941406 387.828125 539.277344 385.691406 C 545.449219 381.742188 549.804688 376.777344 554.558594 368.265625 C 555.28125 366.976562 556.902344 364.347656 558.164062 362.425781 C 559.425781 360.5 560.667969 358.207031 560.929688 357.328125 C 561.574219 355.167969 564.695312 348.96875 567.699219 343.886719 C 569.054688 341.589844 570.453125 338.210938 570.800781 336.375 C 571.148438 334.539062 571.871094 332.191406 572.40625 331.152344 C 573.402344 329.226562 573.675781 327.152344 573.015625 326.492188 C 572.242188 325.71875 565.71875 330.199219 564.777344 332.152344 C 564.25 333.246094 563.363281 334.523438 562.800781 334.984375 C 562.242188 335.449219 561.191406 337 560.46875 338.429688 C 559.742188 339.859375 558.363281 342.179688 557.402344 343.585938 C 556.441406 344.992188 554.894531 347.4375 553.960938 349.019531 C 553.027344 350.601562 550.832031 354.054688 549.082031 356.691406 C 547.328125 359.328125 545.707031 361.917969 545.472656 362.445312 C 544.183594 365.363281 532.851562 375.28125 530.894531 375.203125 C 530.535156 375.1875 528.945312 374.539062 527.363281 373.765625 C 523.414062 371.824219 522.921875 369.714844 524.488281 361.398438 C 525.550781 355.761719 526.003906 354.667969 529.347656 349.703125 C 531.375 346.691406 534.617188 342.691406 536.550781 340.8125 C 541.417969 336.085938 543.476562 329.992188 540.945312 327.789062 C 539.476562 326.507812 533.058594 325.886719 531.382812 326.863281 M 1336.003906 330.210938 C 1334.152344 332.304688 1333.722656 332.480469 1330.902344 332.332031 C 1329.207031 332.242188 1327.511719 332.359375 1327.136719 332.589844 C 1326.765625 332.820312 1326.253906 334.382812 1326.007812 336.0625 C 1325.761719 337.738281 1325.308594 340.695312 1325 342.628906 C 1323.621094 351.351562 1323.585938 352.660156 1324.636719 356.277344 C 1325.335938 358.683594 1326.019531 359.886719 1326.6875 359.886719 C 1330.328125 359.886719 1340.003906 355.558594 1340.992188 353.488281 C 1341.242188 352.964844 1341.886719 351.671875 1342.425781 350.617188 C 1344.078125 347.390625 1345.464844 340.832031 1345.445312 336.34375 L 1345.425781 332.082031 L 1341.992188 330.003906 C 1340.105469 328.859375 1338.441406 327.925781 1338.292969 327.925781 C 1338.148438 327.925781 1337.117188 328.953125 1336.003906 330.210938 M 583.316406 340.664062 C 582.878906 341.371094 583.886719 342.136719 584.480469 341.542969 C 585.085938 340.9375 584.972656 340.070312 584.285156 340.070312 C 583.953125 340.070312 583.519531 340.339844 583.316406 340.664062 M 180.417969 354.222656 C 180.535156 355.050781 180.917969 355.660156 181.269531 355.570312 C 182.214844 355.335938 182.046875 353.328125 181.058594 352.996094 C 180.472656 352.800781 180.273438 353.1875 180.417969 354.222656 M 174.558594 359.886719 C 174.558594 360.238281 174.992188 360.527344 175.519531 360.527344 C 176.046875 360.527344 176.476562 360.238281 176.476562 359.886719 C 176.476562 359.535156 176.046875 359.246094 175.519531 359.246094 C 174.992188 359.246094 174.558594 359.535156 174.558594 359.886719 M 293.164062 368.761719 C 292.972656 369.074219 293.363281 369.472656 294.039062 369.648438 C 294.894531 369.875 295.160156 369.703125 294.921875 369.082031 C 294.535156 368.078125 293.683594 367.921875 293.164062 368.761719 " fill-opacity="1" fill-rule="evenodd"></path></svg>