<svg xmlns="http://www.w3.org/2000/svg" viewBox="0 0 1600 1000" role="img" aria-label="">
  <rect width="1600" height="1000" fill="#f7f2e8"/>
  <path d="M1038 0h562v1000H894c-94-122-126-264-94-426C838 386 906 192 1038 0Z" fill="#255f4c"/>
  <path d="M1194 96c154 20 266 105 336 254 72 151 66 305-17 462-87 163-215 242-386 237-168-5-286-94-354-267-66-169-55-324 33-464 89-141 218-215 388-222Z" fill="#d96c4a"/>
  <path d="M1264 217c98 13 171 68 216 164 47 97 43 197-11 298-56 105-139 156-249 153-108-3-184-61-228-173-43-109-36-209 21-299 58-91 141-139 251-143Z" fill="#d8a846"/>
  <path d="M1091 627c108-103 238-121 391-53 57 25 97 65 118 121v305H894c-45-59-73-122-83-188 76-25 169-86 280-185Z" fill="#173c31"/>
  <circle cx="1178" cy="524" r="84" fill="#fbfaf6"/>
  <path d="M0 796c180-94 349-128 507-102 162 27 292 129 391 306H0Z" fill="#eef2ec"/>
</svg>
